Release info:

General
Format                                   : Matroska
Format version                           : Version 4 / Version 2
File size                                : 697 MiB
Duration                                 : 1h 15mn
Overall bit rate                         : 1 296 Kbps

Video
ID                                       : 1
Format                                   : MPEG-4 Visual
Format profile                           : Advanced Simple@L5
Format settings, BVOP                    : Yes
Format settings, QPel                    : No
Format settings, GMC                     : No warppoints
Format settings, Matrix                  : Default (H.263)
Codec ID                                 : V_MS/VFW/FOURCC / XVID
Codec ID/Hint                            : XviD
Duration                                 : 1h 15mn
Bit rate                                 : 1 142 Kbps
Width                                    : 640 pixels
Height                                   : 272 pixels
Display aspect ratio                     : 2.35:1
Frame rate mode                          : Constant
Frame rate                               : 25.000 fps
Color space                              : YUV
Chroma subsampling                       : 4:2:0
Bit depth                                : 8 bits
Scan type                                : Progressive
Compression mode                         : Lossy
Bits/(Pixel*Frame)                       : 0.263
Stream size                              : 614 MiB (88%)
Language                                 : English
Default                                  : Yes
Forced                                   : No

Audio
ID                                       : 2
Format                                   : MPEG Audio
Format version                           : Version 1
Format profile                           : Layer 3
Codec ID                                 : A_MPEG/L3
Codec ID/Hint                            : MP3
Duration                                 : 1h 15mn
Bit rate mode                            : Constant
Bit rate                                 : 128 Kbps
Channel(s)                               : 2 channels
Sampling rate                            : 48.0 KHz
Compression mode                         : Lossy
Stream size                              : 68.8 MiB (10%)
Language                                 : English
Default                                  : Yes
Forced                                   : No

Source:
credit to original movie ripper AbSurdiTy (Thanks)

IMDB Info:

Focusing on the timeless themes of jealousy, murder and betrayal, 'I Against I' is set over... 

Directors: Mark Cripps, David Ellison, 
Stars: Kenny Doughty, Ingvar Eggert Sigurðsson and Mark Womack 

Genres: Crime | Thriller
 
http://www.imdb.com/title/tt1986034/

Screen Shot:
 
http://www.shotpix.com/images/66909672808988751025.png 
http://www.shotpix.com/images/33566998001383488146.png 
http://www.shotpix.com/images/16667187541365852861.png 
http://www.shotpix.com/images/89012209624549164608.png